<?xml version="1.0" encoding="utf-8"?>
<?xml-stylesheet type="text/css" href="../css/style.css"?>
<svg xmlns="http://www.w3.org/2000/svg" viewBox="0 0 1366 769.54">
    <defs>
        <style>.cls-1{fill:#686661;}.cls-2{fill:#f8e6c5;}.cls-3{fill:none;stroke:#fff;stroke-linecap:round;stroke-linejoin:round;stroke-width:2px;stroke-dasharray:0.15 5;}.cls-4{fill:#dd130f;}.cls-5{fill:#dd120d;}.cls-6{fill:#eea079;}.cls-7{fill:#fcfcfc;}.cls-9{fill:#aeafb0;}.cls-10{font-size:25px;}.cls-10,.cls-11,.cls-12{fill:#fff;font-family:CenturySchoolbook-Bold, Century Schoolbook;font-weight:700;}.cls-11{font-size:19px;}.cls-12{font-size:20px;}.cls-15{fill:#f3d7d1;}.cls-16{fill:#d4d4d4;}</style>
    </defs>
    <title>Sin título-1</title>
    <g id="Mano">
        <path class="cls-2" d="M959.8,510.46c-2.94-.35-5.57.72-8.17,1.83-25.6,11-49,25.86-72.71,40.26-18.26,11.09-36.28,22.58-54.41,33.89l-1,.9a1.22,1.22,0,0,1,.51-1.4c4.82-6.46,11.39-11,17.59-16,38.77-30.78,79.49-58.9,120.06-87.23,4.52-3.16,4.43-4.68-.24-7.63a7.5,7.5,0,0,0-6.65-.67,81.76,81.76,0,0,0-14.18,6.06c-26.33,13.85-51.21,30.13-76.08,46.38-16.25,10.63-32.37,21.45-48.55,32.19l-1.15.65-1,.45.53-.84.9-1.09a94.59,94.59,0,0,1,12.49-12.1c27.09-23.07,55.81-44,84.62-64.84q19-13.72,38.2-27.11c3.46-2.4,2.91-4.16.17-6.42-3.06-2.53-6.28-2.49-9.79-1.05-10,4.13-19.28,9.69-28.47,15.33-35.26,21.66-69.28,45.19-103.16,68.92-1.63,1.14-3.07,3-5.73,2.17A111.76,111.76,0,0,1,815,520.92c21-19.46,43.83-36.65,66.76-53.7q21.19-15.77,42.77-31c3.7-2.62,2.72-4-.38-5.92s-6.36-1.37-9.53-.2a133.62,133.62,0,0,0-18.88,9c-35.22,19.79-102.94,64.74-114.23,73.69h0c-10.66,6.15-17.78,5.74-20.66,5.3-2-.29-5.62-1.14-8.51-1.91-1.94-.52-3.71-1-5.26-1.54s-2.88-1-4.11-1.39h0l-2.09-.63c-10.52-3.11-21-6.22-31.29-10.1-8.71-3.29-17.42-6.71-24.46-13.07-6.73-6.08-4.81-14.21,3.87-16.77a56.89,56.89,0,0,1,13.24-2.25c12.11-.62,24.23-1,36.32-1.93,10.08-.75,20.24-1.33,29.64-5.82,7.05-3.38,13-12.07,12.48-18.36-.28-3.22-1.16-4.72-5-3.68-24.36,6.62-49.16,7.12-74.18,5.44-20.76-1.4-41.42-1.77-61.41,6.21-23.63,9.44-43.47,23.06-57.16,45.2-14.69,23.76-26.89,48.61-34.83,75.37-15.92,53.7-29.31,108.09-42.88,162.42C502.64,745.52,501,756,497.28,766c.15,3.06,2.54,2.08,4.1,2.08q49.85.06,99.69,0c0-1.82,0-3.66.16-5.46,2.92-29.07,5.7-58.16,8.89-87.2,2.08-19,3.83-38,7.82-56.7,2.34-11,7-20.73,17.44-26.57a70,70,0,0,1,44.71,1c13.24,4.39,25.65,10.81,38.55,16,20.6,8.37,41,17.43,63,21.56,11.54,2.15,22.45,1.11,32.32-5.94,6.09-4.34,12.42-8.33,18.45-12.74q64.74-47.38,129.36-94.91c1.16-.86,3.64-1.27,2.75-3.46A5.61,5.61,0,0,0,959.8,510.46Zm-136.49,77-.58.37C822.7,587.29,823,587.45,823.31,587.49Z" transform="translate(0 1.35)"/>
    </g>
    <g id="hilos">
        <line id="hilo9" class="cls-3" x1="1235.68" y1="1.35" x2="1235.68" y2="723.35"/>
        <line id="hilo8" class="cls-3" x1="1079.47" y1="1.35" x2="1079.47" y2="225.18"/>
        <line id="hilo7" class="cls-3" x1="939.3" y1="1.35" x2="939.3" y2="307.79"/>
        <line id="hilo6" class="cls-3" x1="771.3" y1="1.35" x2="771.3" y2="527.38"/>
        <line id="hilo5" class="cls-3" x1="706.01" y1="1.35" x2="706.01" y2="328.03"/>
        <line id="hilo4" class="cls-3" x1="642.02" y1="1.35" x2="642.02" y2="213.33"/>
        <line id="hilo3" class="cls-3" x1="454.66" y1="1" x2="454.66" y2="226.65"/>
        <line id="hilo2" class="cls-3" x1="341.38" y1="1.53" x2="341.38" y2="600.72"/>
        <line id="hilo1" class="cls-3" x1="196.2" y1="2.53" x2="196.2" y2="288.69"/>
    </g>
    <g id="cuadrado">
        <polygon id="derch" class="cls-4" points="796.49 554.11 795.81 521.77 771.3 538.36 771.3 570.45 796.49 554.11"/>
        <polyline id="izqu" class="cls-5" points="745 522.66 745 523.47 745 556.66 771.3 570.45 771.3 538.36"/>
        <polygon id="superior" class="cls-6" points="771.3 506.96 795.81 521.77 771.3 538.36 745 522.66 771.3 506.96"/>
    </g>
    <g id="ojos">
        <path id="ojo2" class="cls-7" d="M956.83,319.91a48.26,48.26,0,0,0-18-19.4,48.88,48.88,0,0,0-14.3,14.3,51.28,51.28,0,0,0,0,54.47,48.82,48.82,0,0,0,14.3,14.29,49.31,49.31,0,0,0,18-63.66Z" transform="translate(0 1.35)"/>
        <path id="iris2" class="cls-8" d="M935.55,321.28a20.72,20.72,0,0,0-17.84,10.18,53.83,53.83,0,0,0,0,21.16,20.76,20.76,0,1,0,17.84-31.34Z" transform="translate(0 1.35)"/>
        <circle id="pupila2" cx="935.35" cy="343.39" r="9.84"/>
        <path id="ojo1" class="cls-7" d="M484.25,267.08a60.6,60.6,0,0,0,24.37-22.66,61.22,61.22,0,0,0-18-18,64.39,64.39,0,0,0-68.42,0,61.22,61.22,0,0,0-18,18,61.94,61.94,0,0,0,80,22.66Z" transform="translate(0 1.35)"/>
        <path id="iris1" class="cls-8" d="M482.54,240.35a26,26,0,0,0-12.8-22.41,67.56,67.56,0,0,0-26.58,0,26.07,26.07,0,1,0,39.38,22.41Z" transform="translate(0 1.35)"/>
        <circle id="pupila1" cx="456.45" cy="241.44" r="12.36"/>
    </g>
    <g id="formas">
        <polygon id="negro2" points="317.25 600.76 365.51 598.46 360.91 722.29 327.98 716.93 317.25 600.76"/>
        <polygon id="negro1" points="175.4 288.24 220.34 291.3 211.65 435.81 179.99 442.96 175.4 288.24"/>
        <polygon id="gris" class="cls-9" points="1193.75 702.93 1197.49 745.15 1264.55 724.04 1264.55 695.78 1193.75 702.93"/>
    </g>
    <g id="textos">
        <text class="cls-10" transform="translate(1215.99 723.35) scale(1 0.84)">05</text>
        <text class="cls-11" transform="translate(337.29 623.04) rotate(90) scale(1 0.84)">show</text>
        <text class="cls-12" transform="translate(190.5 308.79) rotate(90) scale(1 0.84)">exhibitor</text>
    </g>
    <g id="elice">
        <path id="patata" class="cls-13" d="M850.28,211H643.39c1.57-2.4,4-3.83,6.16-5.48,19.34-14.83,40.6-26,64.56-30.73,28.63-5.63,56.6-1.18,83.65,8.88,16.49,6.13,32.93,12.56,47.78,22.26C847.11,207,849.18,207.58,850.28,211Z" transform="translate(0 1.35)"/>
        <path class="cls-14" d="M642,212c-8.83,7.81-15.12,16.44-22.33,24.24-9,9.68-18.14,19.06-29.94,25.59-23.43,13-43.84,9.61-61.44-10.76a96.67,96.67,0,0,1-18.75-34.33c-.93-2.92-.54-4.23,2.94-4.25q63.3-.34,126.59-.86C639.63,211.62,640.24,211.77,642,212Z" transform="translate(0 1.35)"/>
    </g>
    <g id="exclam">
        <path class="cls-15" d="M712.5,315a8.71,8.71,0,0,0-5.69-2.07,9.65,9.65,0,0,0-7.76,3.33c-2.19,2.78-1.73,6.43-1.55,8.32,1.58,15.9,3.18,31.28,4.57,46.68.29,3.19,2.1,3.07,4.4,3.16,2.76.12,3.8-.9,4-3.68.36-5.63,1-11.25,1.64-16.87,1.1-10.41,2.64-20.79,3.24-31.23A9.34,9.34,0,0,0,712.5,315Z" transform="translate(0 1.35)"/>
        <circle class="cls-15" cx="706.17" cy="390.51" r="8.99" transform="translate(2.73 787.26) rotate(-58.28)"/>
    </g>
    <g id="interr">
        <path class="cls-16" d="M1093.29,227.52c-3.65-6.15-12.53-7.73-18.86-5.65a15.72,15.72,0,0,0-8.67,6.87,13.21,13.21,0,0,0-1.72,6.13c-.12,4.71,1.9,8,6.73,8.63a5.8,5.8,0,0,0,3-.5,5.08,5.08,0,0,0,3-3.19,4.65,4.65,0,0,0-2.34-5.07,4.9,4.9,0,0,0-6.26,1.88c1.31-4.72,4.46-8.24,8.31-8.94.49-.09,4.39-.79,6.65,1.67a6.77,6.77,0,0,1,1.49,4.63c0,1.26.4,3.76-3.31,8.06-2.64,3.05-5.88,5.79-5.94,10.31,0,1.59-.21,3.47,1.85,4,1.63.41,2.43-.88,2.87-2.2,1.5-4.48,5.41-6.57,8.78-9.26,4.08-3.26,5.26-5.81,5.84-8.67A13,13,0,0,0,1093.29,227.52Z" transform="translate(0 1.35)"/>
        <path class="cls-16" d="M1077.53,258.5a6.75,6.75,0,1,0,6.73,6.75A6.73,6.73,0,0,0,1077.53,258.5Z" transform="translate(0 1.35)"/>
    </g>
</svg>